<?xml version="1.0" encoding="iso-8859-1"?>
<!-- Uploaded to: SVG Repo, www.svgrepo.com, Generator: SVG Repo Mixer Tools -->
<svg id="drink" fill="#000000" height="800px" width="800px" version="1.1" id="Layer_1" xmlns="http://www.w3.org/2000/svg" xmlns:xlink="http://www.w3.org/1999/xlink" 
	 viewBox="0 0 512 512" xml:space="preserve">
<g>
	<g>
		<path d="M383.998,246.429v-11.762c0-3.428-0.828-6.656-2.265-9.526c-2.42-11.408-6.746-22.439-12.865-32.686l-17.047-28.412
			c-8.282-13.837-10.522-27.179-10.578-57.376h0.088c11.782,0,21.333-9.551,21.333-21.333v-64C362.665,9.551,353.113,0,341.331,0
			H170.665c-11.782,0-21.333,9.551-21.333,21.333v64c0,11.782,9.551,21.333,21.333,21.333h0.096
			c-0.057,30.192-2.301,43.531-10.604,57.385l-17.004,28.375c-6.135,10.247-10.466,21.283-12.886,32.705
			c-1.44,2.872-2.27,6.104-2.27,9.536v128c0,0.029,0.004,0.056,0.004,0.085v106.497c0,24.091,20.511,42.752,44.864,42.752h166.272
			c24.353,0,44.864-18.661,44.864-42.752V246.677C384.002,246.594,383.998,246.512,383.998,246.429z M170.669,256h170.662v85.333
			H170.669V256z M191.998,42.667h128V64H192.002h-0.004V42.667z M298.573,106.667c0.052,38,3.203,56.843,16.65,79.308l16.415,27.358
			H180.366l16.389-27.349c13.466-22.467,16.623-41.316,16.676-79.318H298.573z M339.138,469.333H172.866
			c-1.642,0-2.197-0.506-2.197-0.085V384h170.667v85.248C341.335,468.828,340.78,469.333,339.138,469.333z"/>
	</g>
</g>
</svg>