<?xml version="1.0" encoding="iso-8859-1"?>
<!-- Uploaded to: SVG Repo, www.svgrepo.com, Generator: SVG Repo Mixer Tools -->
<svg version="1.1" id="Layer_1" xmlns="http://www.w3.org/2000/svg" xmlns:xlink="http://www.w3.org/1999/xlink" 
	 viewBox="0 0 512 512" xml:space="preserve">
<rect x="324.34" y="27.474" transform="matrix(0.7072 -0.7071 0.7071 0.7072 7.1634 302.8283)" style="fill:#A7B0C0;" width="89.648" height="230.585"/>
<rect x="392.564" y="1.377" transform="matrix(0.7071 -0.7071 0.7071 0.7071 58.9395 324.3306)" style="fill:#BDC4D0;" width="56.814" height="179.284"/>
<rect x="140.744" y="230.423" transform="matrix(0.7071 -0.7071 0.7071 0.7071 -106.0462 256.0264)" style="fill:#A0BF7C;" width="230.568" height="51.2"/>
<rect x="62.592" y="331.355" transform="matrix(0.7071 -0.7071 0.7071 0.7071 -271.0363 187.6534)" style="fill:#BDC4D0;" width="56.814" height="179.284"/>
<rect x="97.921" y="253.936" transform="matrix(0.7071 -0.7072 0.7072 0.7071 -219.2861 209.1058)" style="fill:#A7B0C0;" width="89.648" height="230.585"/>
<path style="fill:#573A32;" d="M395.819,7.505c-10.001-10.001-26.223-10.001-36.224,0l-22.076,22.076
	c-10.001-10.001-26.223-10.001-36.224,0L256,74.867c-10.001,10.001-10.001,26.223,0,36.224l45.286,45.286L156.373,301.291
	l-45.286-45.286c-10.001-10.001-26.223-10.001-36.224,0l-45.286,45.286c-10.001,10.001-10.001,26.223,0,36.224L7.501,359.59
	c-10.001,10.001-10.001,26.223,0,36.224l108.681,108.681c10.001,10.001,26.223,10.001,36.224,0l22.076-22.076
	c10.001,10.001,26.223,10.001,36.224,0L256,437.141c10.001-10.001,10.001-26.223,0-36.224l-45.286-45.286l144.913-144.913
	l45.286,45.286c10.001,10.001,26.223,10.001,36.224,0l45.286-45.286c10.001-10.001,10.001-26.223,0-36.224l22.076-22.076
	c10.001-10.001,10.001-26.223,0-36.224L395.819,7.505z M134.298,486.387L25.617,377.707l22.076-22.076l108.681,108.681
	L134.298,486.387z M237.884,419.025l-45.286,45.286L47.693,319.398l45.286-45.286L237.884,419.025z M192.606,337.515l-18.116-18.116
	l144.913-144.913l18.116,18.116L192.606,337.515z M419.021,237.888L274.116,92.983l45.286-45.286L464.316,192.61L419.021,237.888z
	 M464.307,156.378L355.627,47.697l22.076-22.076l108.681,108.681L464.307,156.378z"/>
</svg>