<?xml version="1.0" standalone="no"?>
<!DOCTYPE svg PUBLIC "-//W3C//DTD SVG 20010904//EN"
 "http://www.w3.org/TR/2001/REC-SVG-20010904/DTD/svg10.dtd">
<svg version="1.0" xmlns="http://www.w3.org/2000/svg"
 width="500.000000pt" height="500.000000pt" viewBox="0 0 500.000000 500.000000"
 preserveAspectRatio="xMidYMid meet">
<metadata>
Created by potrace 1.14, written by Peter Selinger 2001-2017
</metadata>
<g transform="translate(0.000000,500.000000) scale(0.100000,-0.100000)"
fill="#000000" stroke="none">
<path d="M2411 4806 c2 -2 47 -6 99 -8 63 -4 82 -3 55 3 -39 8 -162 12 -154 5z"/>
<path d="M2288 4793 c12 -2 32 -2 45 0 12 2 2 4 -23 4 -25 0 -35 -2 -22 -4z"/>
<path d="M2623 4794 c3 -3 45 -7 94 -9 72 -2 79 -1 38 5 -62 10 -140 12 -132
4z"/>
<path d="M2188 4783 c6 -2 18 -2 25 0 6 3 1 5 -13 5 -14 0 -19 -2 -12 -5z"/>
<path d="M2133 4773 c9 -2 23 -2 30 0 6 3 -1 5 -18 5 -16 0 -22 -2 -12 -5z"/>
<path d="M2833 4773 c15 -2 27 -8 27 -13 0 -4 9 -6 19 -3 23 6 64 -14 56 -27
-3 -6 1 -7 10 -3 12 4 13 8 5 13 -9 6 -9 9 1 12 14 5 -107 29 -132 27 -8 -1
-2 -4 14 -6z"/>
<path d="M2068 4763 c6 -2 18 -2 25 0 6 3 1 5 -13 5 -14 0 -19 -2 -12 -5z"/>
<path d="M1945 4741 c-38 -10 -64 -20 -58 -24 6 -4 30 0 54 9 24 8 61 16 81
17 22 1 32 4 25 9 -16 10 -19 10 -102 -11z"/>
<path d="M2984 4743 c13 -4 15 -7 7 -13 -9 -5 -4 -9 13 -12 16 -3 23 -1 19 5
-4 6 3 8 18 4 13 -4 33 -7 44 -8 14 -1 10 -4 -10 -9 -27 -7 -28 -8 -5 -8 14 0
34 3 45 7 15 6 1 12 -54 24 -65 15 -127 23 -77 10z"/>
<path d="M2888 4733 c7 -3 16 -2 19 1 4 3 -2 6 -13 5 -11 0 -14 -3 -6 -6z"/>
<path d="M1850 4716 c0 -2 7 -7 16 -10 8 -3 12 -2 9 4 -6 10 -25 14 -25 6z"/>
<path d="M1802 4701 c-11 -7 -10 -9 3 -14 9 -4 13 -3 10 2 -3 5 3 12 12 14 13
3 14 5 3 6 -8 0 -21 -3 -28 -8z"/>
<path d="M3125 4700 c-13 -6 -15 -9 -5 -9 8 0 22 4 30 9 18 12 2 12 -25 0z"/>
<path d="M3215 4674 c48 -23 48 -24 15 -19 -27 4 -30 3 -15 -4 11 -5 35 -7 53
-4 22 4 38 0 50 -10 10 -9 33 -18 52 -21 l35 -6 -29 16 c-30 17 -191 75 -203
73 -5 0 15 -12 42 -25z"/>
<path d="M1755 4680 c3 -5 10 -10 16 -10 5 0 9 5 9 10 0 6 -7 10 -16 10 -8 0
-12 -4 -9 -10z"/>
<path d="M1690 4665 c-215 -83 -268 -112 -228 -123 11 -3 11 -2 0 6 -11 7 -10
11 3 16 10 3 24 1 32 -6 11 -9 13 -8 11 3 -2 8 7 15 20 17 13 2 20 8 16 14 -5
7 0 9 14 6 12 -4 20 -2 17 2 -3 5 9 12 27 15 18 4 43 14 55 22 13 9 31 12 45
8 16 -4 19 -3 10 3 -11 7 -11 10 2 15 9 4 16 2 16 -4 0 -6 5 -7 10 -4 11 7 4
26 -8 24 -4 0 -23 -7 -42 -14z"/>
<path d="M1688 4628 c5 -5 16 -8 23 -6 8 3 3 7 -10 11 -17 4 -21 3 -13 -5z"/>
<path d="M3228 4623 c7 -3 16 -2 19 1 4 3 -2 6 -13 5 -11 0 -14 -3 -6 -6z"/>
<path d="M3423 4595 c0 -7 6 -11 14 -8 7 3 13 1 13 -5 0 -6 14 -15 32 -21 17
-6 29 -13 26 -16 -3 -3 -25 2 -49 10 -24 9 -39 12 -34 7 20 -18 78 -33 89 -22
13 13 29 13 21 0 -3 -5 0 -7 7 -5 7 3 35 -8 61 -25 26 -16 53 -30 60 -31 7 0
3 -5 -8 -10 -18 -8 -17 -9 4 -5 14 3 32 0 40 -7 12 -9 13 -9 8 0 -12 19 -215
125 -227 118 -5 -3 -10 -2 -10 3 0 5 -10 14 -23 19 -18 9 -24 8 -24 -2z"/>
<path d="M1361 4516 c-25 -14 -39 -26 -32 -30 6 -4 11 -2 11 3 0 6 8 11 18 11
11 0 27 9 37 20 22 24 21 24 -34 -4z"/>
<path d="M3584 4491 c0 -12 5 -17 15 -13 9 3 12 1 7 -6 -5 -8 -2 -10 9 -6 9 4
15 7 13 8 -2 1 -12 9 -23 18 -20 16 -21 16 -21 -1z"/>
<path d="M1293 4483 c-15 -5 -17 -23 -4 -23 5 0 11 7 15 15 3 8 4 15 3 14 -1
0 -8 -3 -14 -6z"/>
<path d="M1227 4442 c-16 -10 -25 -23 -22 -31 3 -8 0 -11 -9 -8 -14 6 -97 -46
-104 -65 -2 -4 -7 -6 -12 -3 -4 3 -13 -2 -19 -9 -9 -11 -9 -16 0 -22 8 -4 9
-3 5 4 -4 7 -1 12 8 12 9 0 16 -5 16 -11 0 -5 13 -2 30 8 17 9 30 22 30 27 0
5 -9 1 -19 -8 -11 -10 -25 -16 -32 -14 -12 4 53 58 74 62 38 7 56 18 50 32 -4
10 -1 14 8 12 8 -2 15 1 16 6 1 5 7 13 15 17 7 5 9 9 3 9 -5 0 -22 -8 -38 -18z"/>
<path d="M3754 4426 c18 -15 15 -21 -8 -17 -5 1 -4 -4 2 -12 7 -8 8 -18 4 -23
-4 -4 1 -2 10 5 9 7 23 10 30 6 7 -4 5 0 -4 8 -10 8 -15 17 -12 20 3 3 -5 10
-18 17 -22 11 -22 10 -4 -4z"/>
<path d="M3810 4380 c0 -5 5 -10 11 -10 5 0 8 -4 4 -9 -8 -14 15 -25 26 -14 7
7 1 16 -15 27 -15 9 -26 12 -26 6z"/>
<path d="M3855 4328 l-20 -21 23 12 c12 6 22 16 22 21 0 13 -2 12 -25 -12z"/>
<path d="M1011 4290 c-13 -11 -19 -20 -15 -20 5 -1 -5 -7 -21 -14 -40 -17
-231 -207 -318 -316 -376 -468 -552 -980 -534 -1560 6 -186 25 -347 53 -450 9
-30 21 -74 27 -98 7 -24 15 -40 19 -36 4 3 4 14 -1 23 -5 9 -11 28 -15 44 l-6
27 322 0 323 -1 -33 -29 c-24 -23 -42 -30 -72 -30 -22 0 -40 -4 -40 -10 0 -5
18 -10 39 -10 22 0 41 -4 43 -9 2 -6 24 -11 51 -12 43 -3 47 -5 46 -28 0 -24
-1 -24 -9 -6 -7 16 -9 13 -9 -15 1 -19 3 -29 6 -21 4 10 9 8 19 -10 12 -22 13
-21 7 16 -3 22 -3 37 1 34 4 -4 8 -28 10 -55 2 -38 6 -49 19 -48 10 1 17 -6
17 -17 0 -10 5 -19 11 -19 5 0 7 -5 4 -11 -4 -5 1 -19 10 -29 11 -12 15 -27
10 -42 -5 -18 -4 -20 5 -8 9 13 12 13 25 -4 8 -11 12 -22 9 -25 -4 -3 -9 0
-11 7 -5 13 -23 7 -23 -9 0 -6 4 -8 9 -4 14 8 42 -25 37 -44 -3 -9 -1 -23 4
-31 9 -13 10 -13 10 0 0 13 1 13 10 0 8 -12 10 -12 10 5 1 20 1 20 15 1 23
-30 18 -8 -6 25 -11 16 -25 26 -30 23 -6 -3 -9 0 -7 7 1 8 -19 52 -44 99 -53
96 -103 221 -113 280 l-7 40 306 0 306 0 0 -415 c0 -228 -4 -415 -8 -415 -4 0
-13 5 -20 12 -8 8 -12 8 -12 1 0 -6 7 -13 15 -17 13 -5 15 -54 15 -361 0 -230
-4 -355 -10 -355 -5 0 -10 5 -10 10 0 6 -8 10 -17 10 -17 -1 -17 -1 0 -11 9
-5 17 -16 17 -23 0 -8 10 -20 23 -29 43 -28 253 -106 367 -136 101 -26 266
-61 291 -61 5 0 9 527 9 1250 l0 1250 -660 0 -660 0 0 39 c0 73 30 209 63 288
77 181 206 318 370 393 131 59 152 62 542 67 l360 5 -2 332 -2 331 -453 6
c-441 7 -518 11 -518 31 0 5 -4 7 -8 4 -9 -5 -93 34 -118 55 -8 6 -11 16 -7
21 3 6 0 9 -8 6 -7 -2 -21 5 -30 16 -16 19 -16 21 0 33 14 10 12 11 -9 6 -22
-5 -23 -4 -10 8 20 18 54 59 49 59 -2 -1 -15 -10 -28 -20z m49 -2839 c0 -5 -7
-11 -15 -15 -15 -5 -20 5 -8 17 9 10 23 9 23 -2z"/>
<path d="M3906 4298 c3 -5 10 -6 15 -3 13 9 11 12 -6 12 -8 0 -12 -4 -9 -9z"/>
<path d="M3948 4278 c9 -9 9 -15 -1 -27 -11 -14 -10 -14 6 -2 13 10 15 17 6
27 -6 8 -14 14 -17 14 -3 0 -1 -5 6 -12z"/>
<path d="M3906 4272 c-3 -5 1 -9 9 -9 8 0 12 4 9 9 -3 4 -7 8 -9 8 -2 0 -6 -4
-9 -8z"/>
<path d="M3906 4242 c-2 -4 -1 -14 4 -22 7 -11 9 -9 7 8 -1 24 -3 26 -11 14z"/>
<path d="M3827 4187 c2 -12 5 -28 5 -34 2 -17 13 -16 28 2 11 13 10 14 -4 9
-19 -7 -21 7 -4 24 7 7 10 12 8 13 -3 0 -13 2 -22 4 -12 2 -15 -2 -11 -18z"/>
<path d="M3880 4195 c-7 -9 -8 -15 -2 -15 5 0 12 7 16 15 3 8 4 15 2 15 -2 0
-9 -7 -16 -15z"/>
<path d="M1065 4181 c-7 -12 12 -24 25 -16 11 7 4 25 -10 25 -5 0 -11 -4 -15
-9z"/>
<path d="M3745 4104 c3 -34 12 -40 20 -15 3 12 11 19 16 15 5 -3 6 -11 2 -17
-4 -7 1 -6 10 2 17 13 15 25 -4 27 -5 1 -10 2 -11 4 -2 1 -10 3 -20 5 -12 2
-15 -3 -13 -21z m18 1 c-3 -9 -8 -14 -10 -11 -3 3 -2 9 2 15 9 16 15 13 8 -4z"/>
<path d="M3018 4113 c12 -2 30 -2 40 0 9 3 -1 5 -23 4 -22 0 -30 -2 -17 -4z"/>
<path d="M1273 4103 c9 -2 23 -2 30 0 6 3 -1 5 -18 5 -16 0 -22 -2 -12 -5z"/>
<path d="M2936 4092 c-3 -5 0 -9 7 -9 7 -1 39 -8 71 -17 32 -9 61 -14 63 -12
3 3 -15 10 -38 16 -24 6 -54 15 -67 20 -28 12 -29 12 -36 2z"/>
<path d="M3008 4093 c7 -3 16 -2 19 1 4 3 -2 6 -13 5 -11 0 -14 -3 -6 -6z"/>
<path d="M2867 4058 c8 -15 7 -199 -2 -228 -3 -10 -2 -21 2 -23 10 -6 11 -3
19 120 7 96 1 143 -17 143 -6 0 -7 -6 -2 -12z"/>
<path d="M3765 4060 c-4 -6 -11 -8 -16 -4 -5 3 -8 0 -7 -8 2 -7 -2 -12 -9 -11
-8 2 -10 -4 -6 -14 4 -10 2 -14 -4 -10 -5 3 -10 0 -10 -8 0 -8 1 -15 2 -15 1
0 16 18 34 40 17 22 30 40 27 40 -3 0 -8 -5 -11 -10z"/>
<path d="M3125 4033 c65 -24 96 -32 90 -24 -2 5 -18 11 -35 15 -17 3 -29 9
-27 13 3 5 -11 9 -32 10 l-36 1 40 -15z"/>
<path d="M3669 4028 c-6 -13 -8 -20 -4 -16 5 4 15 2 24 -5 14 -10 14 -10 3 5
-8 9 -11 22 -7 28 3 5 4 10 1 10 -3 0 -11 -10 -17 -22z"/>
<path d="M3230 3996 c0 -2 7 -7 16 -10 8 -3 12 -2 9 4 -6 10 -25 14 -25 6z"/>
<path d="M3675 3980 c-3 -4 -2 -16 2 -26 5 -13 3 -15 -7 -9 -9 5 -11 4 -6 -3
10 -16 11 -15 29 12 14 21 14 25 2 30 -8 3 -17 1 -20 -4z"/>
<path d="M3281 3976 c10 -9 89 -46 89 -41 0 5 -75 45 -86 45 -4 0 -5 -2 -3 -4z"/>
<path d="M3370 3955 c14 -8 30 -14 35 -14 6 0 -1 6 -15 14 -14 8 -29 14 -35
14 -5 0 1 -6 15 -14z"/>
<path d="M3396 3916 c10 -8 21 -12 24 -10 5 6 -21 24 -34 24 -6 0 -1 -6 10
-14z"/>
<path d="M3442 3886 c52 -33 62 -38 51 -24 -7 8 -11 17 -9 19 2 2 -7 5 -20 5
-14 1 -24 1 -22 0z"/>
<path d="M2838 3712 c3 -10 1 -13 -6 -8 -14 8 -16 -3 -4 -21 5 -8 11 -3 18 16
9 21 8 28 -2 28 -7 0 -10 -7 -6 -15z"/>
<path d="M2789 3633 c-10 -12 -10 -14 -1 -9 6 4 12 3 12 -1 0 -5 -6 -15 -12
-22 -10 -11 -10 -12 -1 -7 19 10 35 44 24 50 -5 3 -15 -2 -22 -11z"/>
<path d="M2745 3560 c-17 -19 -19 -19 -32 -2 -13 15 -13 15 -4 -4 7 -15 7 -24
-1 -32 -7 -7 -8 -12 -4 -12 4 0 24 16 43 35 19 19 31 35 26 35 -6 0 -18 -9
-28 -20z"/>
<path d="M2636 3479 c2 -4 -13 -14 -34 -22 -20 -9 -30 -16 -22 -16 8 0 35 11
60 23 38 21 41 24 18 23 -14 -1 -24 -5 -22 -8z"/>
<path d="M2506 3469 c7 -12 41 -16 41 -5 0 6 -10 11 -23 11 -12 0 -20 -3 -18
-6z"/>
<path d="M2580 3469 c0 -5 5 -7 10 -4 6 3 10 8 10 11 0 2 -4 4 -10 4 -5 0 -10
-5 -10 -11z"/>
<path d="M2500 3424 c-15 -8 -19 -14 -9 -14 8 0 19 4 25 9 5 5 18 11 29 14
l20 5 -20 0 c-11 0 -31 -6 -45 -14z"/>
<path d="M2178 3403 c6 -2 18 -2 25 0 6 3 1 5 -13 5 -14 0 -19 -2 -12 -5z"/>
<path d="M2268 3403 c29 -2 74 -2 100 0 26 2 2 3 -53 3 -55 0 -76 -1 -47 -3z"/>
<path d="M2892 3018 l3 -363 958 -3 957 -2 0 32 c0 110 -70 426 -133 598 l-34
95 -877 3 -876 2 2 -362z"/>
<path d="M2890 1490 l0 -360 328 -2 c398 -2 388 -2 384 -17 -1 -7 2 -10 8 -6
14 9 122 -73 115 -86 -4 -5 -3 -9 2 -8 17 3 36 -1 31 -7 -4 -3 11 -21 33 -41
40 -36 106 -140 95 -150 -3 -3 -10 5 -15 18 l-10 24 0 -27 c-1 -16 4 -28 9
-28 6 0 10 -4 10 -10 0 -20 -21 -10 -32 16 -9 19 -9 30 0 44 7 11 8 21 2 25
-5 3 -13 -14 -18 -37 -8 -33 -10 -37 -11 -15 -2 43 -21 31 -21 -13 0 -29 4
-40 15 -40 8 0 15 5 15 11 0 5 5 7 10 4 6 -3 10 -26 10 -51 0 -40 2 -44 24
-44 13 0 27 8 31 17 6 16 8 15 20 -7 17 -29 20 -64 5 -55 -5 3 -10 18 -11 33
0 24 -1 25 -8 7 -6 -13 -3 -30 8 -48 11 -20 17 -24 19 -13 2 9 9 13 19 9 12
-5 13 -2 5 13 -34 70 -44 95 -39 100 7 7 57 -93 57 -113 0 -30 31 -5 174 140
216 217 349 414 473 697 46 104 123 338 123 371 0 5 -371 9 -930 9 l-930 0 0
-360z m1030 -715 c14 -19 14 -19 -2 -6 -10 7 -18 18 -18 24 0 6 1 8 3 6 1 -2
9 -13 17 -24z m-13 -37 c-3 -8 -6 -5 -6 6 -1 11 2 17 5 13 3 -3 4 -12 1 -19z"/>
<path d="M220 1773 c0 -5 7 -16 15 -26 7 -11 11 -25 9 -32 -3 -7 -1 -16 5 -20
16 -9 13 21 -4 55 -15 29 -25 38 -25 23z"/>
<path d="M876 1671 c-4 -7 -5 -15 -2 -18 9 -9 19 4 14 18 -4 11 -6 11 -12 0z"/>
<path d="M287 1589 c4 -13 8 -18 11 -10 2 7 -1 18 -6 23 -8 8 -9 4 -5 -13z"/>
<path d="M949 1580 c-7 -34 -2 -87 9 -87 14 0 15 7 2 27 -5 9 -5 19 2 28 8 9
8 16 0 24 -7 7 -12 10 -13 8z"/>
<path d="M307 1543 c14 -35 33 -68 33 -55 0 14 -28 72 -35 72 -2 0 -1 -8 2
-17z"/>
<path d="M340 1468 c0 -13 93 -188 100 -188 14 0 21 33 10 44 -8 8 -9 6 -5 -5
4 -10 2 -20 -4 -23 -6 -4 -15 10 -20 32 -6 21 -20 49 -30 61 -11 13 -17 30
-14 39 4 9 2 13 -2 9 -5 -4 -15 3 -22 15 -7 13 -12 20 -13 16z"/>
<path d="M451 1394 c0 -11 3 -14 6 -6 3 7 2 16 -1 19 -3 4 -6 -2 -5 -13z"/>
<path d="M1103 1377 c0 -15 7 -32 15 -39 12 -10 14 -10 8 0 -4 6 -2 12 3 12 6
0 11 -6 11 -14 0 -8 6 -16 13 -19 6 -2 9 -8 5 -12 -4 -4 -14 -2 -23 5 -13 11
-14 10 -10 -3 4 -8 2 -18 -4 -22 -6 -3 -11 -14 -10 -23 0 -13 3 -12 11 6 11
23 32 29 43 13 3 -6 14 -8 25 -6 12 2 18 0 15 -6 -4 -5 -10 -7 -15 -4 -13 8
-20 -9 -9 -25 7 -13 9 -13 9 0 1 8 6 4 11 -9 5 -13 12 -21 15 -18 3 3 1 14 -5
26 -6 11 -7 22 -2 25 4 3 13 -6 19 -19 7 -14 18 -25 27 -25 8 0 15 -5 15 -11
0 -6 -9 -8 -20 -4 -11 4 -20 2 -20 -4 0 -15 -16 -14 -33 4 -13 12 -15 12 -13
-8 1 -16 7 -22 23 -22 13 0 23 3 23 8 0 4 10 7 23 7 18 0 19 -2 7 -11 -12 -8
-10 -9 7 -4 12 3 24 1 28 -5 4 -7 -2 -14 -14 -17 -27 -7 -27 -23 -1 -23 11 0
20 5 20 11 0 6 10 9 23 7 12 -2 20 -6 17 -9 -7 -9 30 -49 44 -49 6 0 3 5 -7
11 -9 6 -15 15 -12 20 4 5 20 0 38 -12 l32 -21 -30 26 c-16 14 -31 24 -32 22
-8 -8 -179 158 -246 239 l-24 29 0 -27z m192 -187 c3 -6 -1 -7 -9 -4 -18 7
-21 14 -7 14 6 0 13 -4 16 -10z"/>
<path d="M868 1323 c7 -3 16 -2 19 1 4 3 -2 6 -13 5 -11 0 -14 -3 -6 -6z"/>
<path d="M910 1290 c0 -5 7 -10 15 -10 8 0 15 5 15 10 0 6 -7 10 -15 10 -8 0
-15 -4 -15 -10z"/>
<path d="M451 1260 c-1 -14 45 -90 53 -90 9 0 -7 40 -23 57 -10 10 -21 25 -24
33 -5 13 -6 13 -6 0z"/>
<path d="M1140 1259 c0 -5 5 -7 10 -4 6 3 10 8 10 11 0 2 -4 4 -10 4 -5 0 -10
-5 -10 -11z"/>
<path d="M868 1253 c7 -3 16 -2 19 1 4 3 -2 6 -13 5 -11 0 -14 -3 -6 -6z"/>
<path d="M501 1234 c0 -11 3 -14 6 -6 3 7 2 16 -1 19 -3 4 -6 -2 -5 -13z"/>
<path d="M517 1169 c-3 -12 1 -31 9 -43 14 -20 14 -19 10 18 -6 47 -12 54 -19
25z"/>
<path d="M3611 1091 c-17 -11 -7 -41 13 -41 7 0 16 -9 19 -19 3 -14 12 -19 31
-17 14 1 28 5 31 8 9 9 -26 32 -48 33 -13 0 -23 8 -27 22 -3 16 -9 20 -19 14z
m77 -54 c8 -10 6 -13 -7 -13 -11 0 -17 6 -14 13 3 7 6 13 8 13 1 0 7 -6 13
-13z"/>
<path d="M555 1080 c4 -6 10 -8 15 -5 5 3 12 0 16 -6 4 -8 3 -9 -4 -5 -20 12
-13 -12 7 -26 10 -7 19 -17 20 -23 1 -5 14 -24 29 -41 15 -17 40 -47 56 -68
15 -20 30 -35 33 -32 3 2 -4 15 -16 27 -11 12 -18 27 -14 32 4 6 1 7 -7 2 -10
-6 -11 -4 -5 11 4 10 7 27 7 36 0 10 5 15 13 12 7 -3 16 -1 20 5 3 7 -2 11
-14 11 -11 0 -23 -5 -26 -10 -5 -8 -11 -8 -19 -1 -9 7 -16 7 -24 -1 -14 -14
-34 33 -25 59 5 15 3 14 -11 -2 -16 -20 -16 -19 -12 8 4 23 1 27 -20 27 -15 0
-23 -4 -19 -10z m129 -103 c4 4 4 -1 0 -12 -5 -11 -9 -14 -12 -7 -2 7 -8 10
-13 6 -5 -3 -9 5 -9 18 1 21 2 22 14 6 7 -10 16 -15 20 -11z"/>
<path d="M680 1080 c0 -5 5 -10 10 -10 6 0 10 5 10 10 0 6 -4 10 -10 10 -5 0
-10 -4 -10 -10z"/>
<path d="M3570 1070 c0 -6 -12 -16 -27 -23 -16 -7 -56 -30 -89 -52 -34 -22
-70 -45 -80 -51 -16 -10 -15 -11 12 -9 17 1 35 5 41 8 7 4 15 3 18 -3 5 -8 11
-7 22 1 12 10 16 10 23 -1 5 -8 8 3 7 31 -1 28 2 44 10 44 6 0 14 3 18 7 4 4
13 4 20 2 7 -3 17 1 21 8 10 16 16 48 9 48 -3 0 -5 -5 -5 -10z m-5 -30 c-3 -5
-12 -10 -18 -10 -7 0 -6 4 3 10 19 12 23 12 15 0z m-83 -47 c-10 -4 -10 -8 -1
-19 12 -15 10 -16 -33 -18 -15 -1 -24 2 -22 6 3 4 11 8 19 8 7 0 15 7 19 15 3
8 11 15 18 14 10 0 10 -2 0 -6z"/>
<path d="M1426 1033 c-6 -14 -5 -15 5 -6 7 7 10 15 7 18 -3 3 -9 -2 -12 -12z"/>
<path d="M3740 969 c0 -4 5 -11 10 -14 6 -4 8 -10 6 -14 -3 -4 8 -7 24 -6 29
0 29 0 9 21 -19 20 -49 28 -49 13z m40 -20 c0 -6 -4 -7 -10 -4 -5 3 -10 11
-10 16 0 6 5 7 10 4 6 -3 10 -11 10 -16z"/>
<path d="M732 899 c14 -18 19 -33 13 -37 -6 -4 1 -18 16 -34 24 -26 25 -26 23
-5 -1 12 -3 22 -4 22 -1 0 -3 16 -4 37 -2 25 1 35 10 31 6 -2 15 1 19 7 5 8
-1 11 -16 8 -20 -2 -24 -8 -21 -33 2 -29 2 -29 -13 -11 -8 11 -15 23 -15 27 0
4 -7 9 -15 13 -10 4 -8 -4 7 -25z m39 -56 c13 -16 12 -17 -3 -4 -10 7 -18 15
-18 17 0 8 8 3 21 -13z"/>
<path d="M1433 890 c0 -25 2 -35 4 -22 2 12 2 32 0 45 -2 12 -4 2 -4 -23z"/>
<path d="M3300 909 c-19 -10 -55 -27 -79 -37 l-44 -18 36 0 c20 0 32 3 26 7
-16 10 24 21 47 13 15 -5 16 -4 5 4 -12 9 -10 12 12 17 14 4 31 13 38 21 15
19 2 16 -41 -7z"/>
<path d="M3823 890 c0 -23 3 -28 9 -16 5 9 5 23 0 32 -6 12 -9 7 -9 -16z"/>
<path d="M800 846 c0 -2 7 -7 16 -10 8 -3 12 -2 9 4 -6 10 -25 14 -25 6z"/>
<path d="M3130 837 c-14 -8 -32 -11 -40 -9 -11 4 -11 1 2 -11 9 -10 23 -17 30
-17 10 0 9 3 -2 10 -13 9 -13 10 0 10 16 1 60 30 44 30 -5 0 -20 -6 -34 -13z"/>
<path d="M2988 802 c-39 -11 -58 -21 -58 -32 0 -13 2 -13 10 0 5 9 25 15 49
15 25 0 35 3 28 8 -7 5 0 6 18 3 23 -5 27 -4 15 5 -12 8 -8 9 15 5 22 -5 26
-4 15 4 -18 12 -20 12 -92 -8z"/>
<path d="M843 803 c-17 -6 -17 -20 0 -26 8 -3 13 3 13 14 0 11 0 19 -1 18 0 0
-6 -3 -12 -6z"/>
<path d="M800 794 c0 -5 15 -24 33 -42 28 -27 33 -29 33 -13 0 11 -4 17 -8 15
-4 -3 -19 7 -33 23 -13 15 -25 23 -25 17z"/>
<path d="M2911 774 c0 -11 3 -14 6 -6 3 7 2 16 -1 19 -3 4 -6 -2 -5 -13z"/>
<path d="M3083 783 c9 -2 23 -2 30 0 6 3 -1 5 -18 5 -16 0 -22 -2 -12 -5z"/>
<path d="M2900 429 c0 -244 3 -310 13 -306 8 2 11 21 10 53 -2 27 -3 165 -3
307 -1 157 -4 257 -10 257 -6 0 -10 -118 -10 -311z"/>
<path d="M900 724 c0 -1 6 -7 14 -13 10 -9 15 -8 19 2 3 8 -3 13 -14 13 -11 0
-19 -1 -19 -2z"/>
<path d="M880 714 c0 -6 14 -19 50 -49 14 -11 10 -4 -9 18 -35 37 -41 42 -41
31z"/>
<path d="M988 618 c18 -19 39 -35 47 -35 8 0 12 4 9 9 -3 5 -10 6 -15 3 -5 -4
-9 -2 -9 4 0 5 -15 20 -32 32 l-33 22 33 -35z"/>
<path d="M3899 613 c-1 -5 -1 -12 0 -16 1 -5 -8 -6 -19 -2 -11 3 -28 1 -37 -5
-16 -9 -15 -10 5 -5 13 4 29 1 37 -5 12 -10 15 -10 15 -1 0 7 5 9 10 6 6 -4 7
-11 4 -17 -4 -7 -2 -8 5 -4 6 4 9 12 5 17 -3 6 2 9 11 7 10 -2 19 3 21 10 1 7
0 8 -3 2 -3 -7 -13 -6 -29 5 -13 8 -25 12 -25 8z"/>
<path d="M1433 570 c0 -25 2 -35 4 -22 2 12 2 32 0 45 -2 12 -4 2 -4 -23z"/>
<path d="M1453 530 c0 -47 2 -66 4 -42 2 23 2 61 0 85 -2 23 -4 4 -4 -43z"/>
<path d="M1060 596 c0 -2 8 -10 18 -17 15 -13 16 -12 3 4 -13 16 -21 21 -21
13z"/>
<path d="M3834 546 c-10 -16 -21 -23 -31 -19 -12 5 -14 3 -8 -7 6 -10 2 -11
-18 -6 -14 3 -29 2 -32 -4 -4 -6 1 -7 12 -3 16 6 16 4 -2 -17 l-20 -23 28 18
c15 10 30 15 33 12 3 -3 -18 -19 -47 -36 -39 -22 -57 -27 -66 -20 -7 6 -18 9
-25 6 -8 -3 -6 -6 5 -6 15 -1 15 -4 5 -21 -7 -11 -18 -20 -24 -20 -6 0 -23 -9
-38 -21 -15 -11 -33 -18 -42 -15 -8 3 -13 2 -9 -3 3 -5 -29 -25 -70 -45 -81
-38 -103 -57 -32 -27 90 39 226 115 221 123 -3 5 1 8 9 6 17 -3 201 111 193
120 -3 3 -15 -3 -26 -13 -27 -24 -26 -7 2 22 12 13 16 23 10 23 -6 0 -19 -11
-28 -24z"/>
<path d="M1086 551 c-3 -5 2 -15 12 -22 15 -12 16 -12 5 2 -7 9 -10 19 -6 22
3 4 4 7 0 7 -3 0 -8 -4 -11 -9z"/>
<path d="M1126 521 c-7 -10 62 -57 70 -48 3 3 -4 8 -15 12 -12 3 -19 11 -15
16 3 5 10 6 16 3 7 -5 8 -2 3 5 -4 8 -17 10 -32 6 -16 -4 -22 -2 -18 5 3 5 4
10 1 10 -3 0 -7 -4 -10 -9z"/>
<path d="M1230 520 c-8 -5 -10 -10 -5 -10 6 0 17 5 25 10 8 5 11 10 5 10 -5 0
-17 -5 -25 -10z"/>
<path d="M1215 453 c6 -6 28 -20 50 -32 22 -13 31 -15 20 -6 -22 18 -86 53
-70 38z"/>
<path d="M3600 420 c-24 -15 -7 -18 25 -4 23 10 25 13 10 13 -11 1 -27 -3 -35
-9z"/>
<path d="M1311 397 c2 -1 13 -9 24 -17 19 -14 19 -14 6 3 -7 9 -18 17 -24 17
-6 0 -8 -1 -6 -3z"/>
<path d="M1362 365 c2 -1 12 -7 24 -13 15 -8 21 -8 21 1 0 7 -11 13 -24 13
-14 1 -23 1 -21 -1z"/>
<path d="M3463 353 c9 -2 23 -2 30 0 6 3 -1 5 -18 5 -16 0 -22 -2 -12 -5z"/>
<path d="M1425 340 c3 -5 8 -10 11 -10 2 0 4 5 4 10 0 6 -5 10 -11 10 -5 0 -7
-4 -4 -10z"/>
<path d="M3478 333 c7 -3 16 -2 19 1 4 3 -2 6 -13 5 -11 0 -14 -3 -6 -6z"/>
<path d="M3435 320 c-3 -6 1 -7 9 -4 18 7 21 14 7 14 -6 0 -13 -4 -16 -10z"/>
<path d="M3180 280 c0 -5 4 -10 9 -10 6 0 13 5 16 10 3 6 -1 10 -9 10 -9 0
-16 -4 -16 -10z"/>
<path d="M3260 263 c0 -17 -9 -24 -36 -32 -20 -6 -45 -17 -55 -26 -10 -10 -34
-17 -53 -18 -20 -1 -31 -4 -25 -8 6 -3 -4 -9 -22 -13 -18 -3 -37 -2 -43 4 -7
7 -3 10 11 10 12 0 25 5 28 10 3 6 2 10 -4 10 -5 0 -18 3 -28 6 -14 5 -15 4
-4 -4 12 -9 9 -12 -15 -17 -44 -10 -74 -27 -74 -43 0 -11 9 -12 43 -7 52 9
271 72 312 90 17 7 46 18 66 24 37 12 52 43 16 33 -15 -4 -16 -7 -5 -14 8 -6
1 -7 -22 -4 -26 5 -30 4 -15 -3 l20 -10 -20 1 c-11 0 -31 4 -45 8 -21 7 -22 8
-5 9 11 1 27 5 35 11 10 6 3 8 -23 7 -31 -2 -37 -6 -37 -24z m30 -26 c-27 -15
-36 -14 -25 2 3 6 16 11 28 11 21 0 21 -1 -3 -13z m-83 -33 c-3 -3 -12 -4 -19
-1 -8 3 -5 6 6 6 11 1 17 -2 13 -5z m-187 -43 c0 -9 -60 -24 -68 -16 -5 5 36
23 56 24 6 1 12 -3 12 -8z"/>
<path d="M3108 203 c7 -3 16 -2 19 1 4 3 -2 6 -13 5 -11 0 -14 -3 -6 -6z"/>
<path d="M2978 193 c6 -2 18 -2 25 0 6 3 1 5 -13 5 -14 0 -19 -2 -12 -5z"/>
</g>
</svg>
